<svg xmlns="http://www.w3.org/2000/svg" width="105" height="35" viewBox="-19 0 105 35" fill="none">

<path fill="#000" fill-rule="evenodd" d="M58.87 17.83v1.89h-8.54c.13 2.41 1.13 3.6 3.7 3.6 1.74 0 3.61-.56 4.69-1.28v2.89c-1 .68-2.7 1.18-4.97 1.18-4.53 0-7.1-2.5-7.1-7.63 0-4.5 2.07-7.78 6.39-7.78 3.54 0 5.83 1.95 5.83 7.13zm-5.91-4.32c-1.7 0-2.56 1.24-2.64 3.59h4.93v-.3c0-1.86-.53-3.29-2.3-3.29zM26.24 16.9v-5.93h3.57v14.99h-3.57v-6.27h-4.75v6.27h-3.54v-15h3.54v5.94h4.75zm47.83 9.06h-4.02l-5.25-7.36v7.36h-3.54v-15h3.54v6.93l5-6.92h3.59l-5 6.92 5.68 8.07zm10.48-.75c-.87.63-2.02.93-3.67.93-4.72 0-7.02-2.74-7.03-7.65 0-4.53 2.35-7.75 6.88-7.75 1.76 0 3.07.3 3.82.72v3a6.89 6.89 0 00-3.42-.92c-2.33 0-3.6 1.64-3.6 4.86 0 3.04 1.03 4.94 3.57 4.94 1.49 0 2.55-.4 3.45-1.02v2.9zM44.2 23.15h1.58v6.1H42.5v-3.32h-7.95v3.32h-3.28v-6.11h1.1c1.25-2.5 1.5-7.24 1.5-10.9v-1.28H44.2v12.19zm-8.54 0h5v-9.38h-3.75v.44c0 2.59-.26 6.68-1.25 8.94z" clip-rule="evenodd"/>

<path fill="#FC3F1D" d="M -9 26 h -3.7 v -18 h -5.3 v -2.8 h 14 v 2.8 h -5 v 18 M -1 26 v -21 h 3.6 v 9.5 c 4.4 -0.7 7.9 1.3 7.9 5.5 c 0.3 4.5 -3.3 6 -4.5 6 l -2 0 c 2.1 -2.5 3.4 -4.2 3.3 -6 c 0 -1.2 -1.1 -3.2 -4.7 -2.4 v 8.4 h -3.6 M 11 26 v -21 h 3.6 v 21 h -3.6"/>

</svg>
